HIERARCHY
ROOT Hips
{
    OFFSET 0.0 0.0 0.0
    CHANNELS 6 Xposition Yposition Zposition Zrotation Xrotation Yrotation
    JOINT LeftHipJoint
    {
        OFFSET 0.1 0.0 0.0
        CHANNELS 3 Zrotation Xrotation Yrotation
        JOINT LeftUpLeg
        {
            OFFSET 125.78185085947499 0.0 0.0
            CHANNELS 3 Zrotation Xrotation Yrotation
            JOINT LeftLeg
            {
                OFFSET 0.0 0.0 -415.91059737804875
                CHANNELS 3 Zrotation Xrotation Yrotation
                JOINT LeftFoot
                {
                    OFFSET 0.0 0.0 -404.8259208223787
                    CHANNELS 3 Zrotation Xrotation Yrotation
                    End Site
                    {
                        OFFSET 0.0 -0.1 0.0
                    }
                }
            }
        }
    }
    JOINT LowerBack
    {
        OFFSET 0.0 0.0 0.1
        CHANNELS 3 Zrotation Xrotation Yrotation
        JOINT Spine
        {
            OFFSET 0.0 0.0 221.01296023004375
            CHANNELS 3 Zrotation Xrotation Yrotation
            JOINT Spine1
            {
                OFFSET 0.0 0.0 252.64802491294432
                CHANNELS 3 Zrotation Xrotation Yrotation
                JOINT LeftShoulder
                {
                    OFFSET 0.1 0.0 0.0
                    CHANNELS 3 Zrotation Xrotation Yrotation
                    JOINT LeftArm
                    {
                        OFFSET 138.2418331892473 0.0 0.0
                        CHANNELS 3 Zrotation Xrotation Yrotation
                        JOINT LeftForeArm
                        {
                            OFFSET 264.7430648233118 0.0 0.0
                            CHANNELS 3 Zrotation Xrotation Yrotation
                            JOINT LeftHand
                            {
                                OFFSET 233.56678329505456 0.0 0.0
                                CHANNELS 3 Zrotation Xrotation Yrotation
                                End Site
                                {
                                    OFFSET 0.1 0.0 0.0
                                }
                            }
                        }
                    }
                }
                JOINT Neck
                {
                    OFFSET 0.0 0.0 0.1
                    CHANNELS 3 Zrotation Xrotation Yrotation
                    JOINT Neck1
                    {
                        OFFSET 0.0 0.0 104.119245320339
                        CHANNELS 3 Zrotation Xrotation Yrotation
                        End Site
                        {
                            OFFSET 0.0 0.0 115.72440882118278
                        }
                    }
                }
                JOINT RightShoulder
                {
                    OFFSET -0.1 0.0 0.0
                    CHANNELS 3 Zrotation Xrotation Yrotation
                    JOINT RightArm
                    {
                        OFFSET -138.2418331892473 0.0 0.0
                        CHANNELS 3 Zrotation Xrotation Yrotation
                        JOINT RightForeArm
                        {
                            OFFSET -264.7430648233118 0.0 0.0
                            CHANNELS 3 Zrotation Xrotation Yrotation
                            JOINT RightHand
                            {
                                OFFSET -233.56678329505456 0.0 0.0
                                CHANNELS 3 Zrotation Xrotation Yrotation
                                End Site
                                {
                                    OFFSET -0.1 0.0 0.0
                                }
                            }
                        }
                    }
                }
            }
        }
    }
    JOINT RightHipJoint
    {
        OFFSET -0.1 0.0 0.0
        CHANNELS 3 Zrotation Xrotation Yrotation
        JOINT RightUpLeg
        {
            OFFSET -125.78185085947499 0.0 0.0
            CHANNELS 3 Zrotation Xrotation Yrotation
            JOINT RightLeg
            {
                OFFSET 0.0 0.0 -415.91059737804875
                CHANNELS 3 Zrotation Xrotation Yrotation
                JOINT RightFoot
                {
                    OFFSET 0.0 0.0 -404.8259208223787
                    CHANNELS 3 Zrotation Xrotation Yrotation
                    End Site
                    {
                        OFFSET 0.0 -0.1 0.0
                    }
                }
            }
        }
    }
}
MOTION
Frames: 5
Frame Time: 0.03333333333333333
0.0 0.0 811.2673178351573 20.98251931633855 4.052273825498412 3.6372874041643497 0.0 0.0 -8.94531004161614e-16 -1.0296600263097178 -13.242588896763355 0.46145286594204316 2.2238565732537596 24.15634600983388 0.41612932745939163 0.0 0.0 -7.951386703658792e-16 0.0 0.0 -8.94531004161614e-16 0.18616686494692636 2.436642391490251 0.6752064988507966 -4.029806356147148 -1.7929330949059843e-15 -2.7483307981602735e-15 8.620910738379216e-35 9.93923337957349e-17 -9.93923337957349e-17 -5.017942918336585 -32.42857571558339 48.02679714903388 -114.51477064866934 -1.9098765113818354e-15 8.790892808213957e-15 0.0 2.4848083448933725e-17 0.0 8.620910738379216e-35 9.93923337957349e-17 -9.93923337957349e-17 12.798404727706108 -0.9361002067103033 4.092215861747698 8.620910738379216e-35 9.93923337957349e-17 -9.93923337957349e-17 16.966618850678504 16.72267877903958 -79.14371820137559 56.53904684680321 1.0121537090532776e-14 5.3908767364968316e-15 0.0 0.0 2.3854160110976376e-15 0.0 0.0 -8.94531004161614e-16 -1.2306275775874818 -15.708802103914158 -2.6841318782556662 1.0093170319688933 28.54527069396719 -3.2599411219211762 0.0 0.0 3.975693351829396e-16
0.0 0.0 811.2673178351573 21.074333816452285 4.390739339893676 3.529050793655182 -3.1805546814635164e-15 0.0 0.0 -1.0356856386591506 -13.794488910525127 0.537055013829355 2.2571581914010266 24.80644075482667 0.5016978052333166 3.1805546814635168e-15 -1.987846675914698e-16 -3.975693351829396e-16 -3.1805546814635164e-15 0.0 0.0 0.1826786859812373 2.4797081388894444 0.8415837028060982 -4.00472024104706 -8.662021206485054e-16 -8.259086563910299e-16 -3.1805546814635168e-15 -2.758691436281349e-33 9.93923337957349e-17 -5.369426040803317 -30.882448412966966 48.19955355823583 -112.43489696553013 -1.750013156944043e-15 8.824107807861295e-15 0.0 0.0 0.0 -3.1805546814635168e-15 -2.758691436281349e-33 9.93923337957349e-17 12.645253047750247 -1.3033177618238752 3.946912537277881 -3.1805546814635168e-15 -2.758691436281349e-33 9.93923337957349e-17 17.093061071372613 16.70403414067639 -79.2956717630755 56.236427828161005 -1.113440131665072e-15 1.1413470819007296e-14 0.0 0.0 1.5902773407317584e-15 -3.1805546814635164e-15 0.0 0.0 -1.209642418746524 -15.997661152476425 -2.5994297051807287 0.974504022210138 28.63845060985956 -3.1910569392534955 0.0 0.0 -3.975693351829396e-16
0.0 0.0 811.2673178351573 21.205340857850317 4.608298136688249 3.322933174811296 -8.620910738379216e-35 -9.93923337957349e-17 -9.93923337957349e-17 -0.9996324794964312 -14.134435121478047 0.7255832258922832 2.2640233184034555 25.146522821539843 0.5093440030013265 0.0 0.0 3.975693351829396e-16 -8.620910738379216e-35 -9.93923337957349e-17 -9.93923337957349e-17 0.17544233441933718 2.530527561157283 1.1033313930116797 -3.812738770394245 8.675845940554337e-16 8.244563024656142e-16 1.7241821476758432e-33 -9.93923337957349e-16 1.987846675914698e-16 -4.985550191645841 -28.184294890322175 49.071176404820434 -111.74181098911757 0.0 0.0 0.0 0.0 0.0 1.7241821476758432e-33 -9.93923337957349e-16 1.987846675914698e-16 12.315032950656 -1.4435909940221683 3.7385597070454213 1.7241821476758432e-33 -9.93923337957349e-16 1.987846675914698e-16 17.01641901135761 16.42721777335972 -79.3796312839029 56.59794825640348 -9.909113430337338e-15 1.7230066286881095e-15 0.0 0.0 1.5902773407317584e-15 -8.620910738379216e-35 -9.93923337957349e-17 -9.93923337957349e-17 -1.152212917978251 -16.181836071489776 -2.3731117621598408 0.9568967200434025 28.569599204485822 -3.166574835821717 0.0 0.0 -3.975693351829396e-16
0.0 0.0 811.2673178351573 21.400747574300627 4.745218999487895 3.140851794698191 -3.1805546814635164e-15 9.93923337957349e-17 -2.9817700138720465e-16 -0.9564736094130044 -14.229376382348976 0.8580533502879478 2.2342581585170143 25.172962650529996 0.4426477423839525 1.1034765745125397e-32 -1.5902773407317584e-15 7.951386703658792e-16 -3.1805546814635164e-15 9.93923337957349e-17 -2.9817700138720465e-16 0.16968371486336822 2.575517705842667 1.4367149056514095 -3.5641384054867067 6.146109643029838e-16 -5.775201778368241e-16 -3.1805546814635164e-15 -5.517382872562698e-33 1.9878466759146977e-16 -4.471326829151444 -25.09963261291569 50.04840452127689 -110.94883082662967 -9.84938835893134e-16 -7.04340371542388e-15 0.0 0.0 0.0 -3.1805546814635164e-15 -5.517382872562698e-33 1.9878466759146977e-16 11.679201913974463 -1.5070873482516227 3.3157130347943324 -3.1805546814635164e-15 -5.517382872562698e-33 1.9878466759146977e-16 16.641264427435623 16.278796625952314 -79.525776726074 56.950002727033045 4.075165693781793e-15 -5.828607464662673e-15 -6.3611093629270335e-15 8.827812596100317e-32 -1.5902773407317584e-15 -3.1805546814635164e-15 9.93923337957349e-17 -2.9817700138720465e-16 -1.0851851199041969 -16.04469959136501 -2.2571122472189384 0.8916739335755672 28.160457957782693 -2.952501712029651 0.0 0.0 0.0
0.0 0.0 811.2673178351573 21.526742971705634 5.20590838365872 3.0751424977098627 0.0 0.0 3.975693351829396e-16 -0.9794264110211622 -14.78215558097881 0.9086212033005352 2.2338137941546448 25.176178812345675 0.34793052334854874 -3.1805546814635168e-15 1.987846675914698e-16 3.975693351829396e-16 0.0 0.0 3.975693351829396e-16 0.16921080173459918 2.6099222452186397 1.7180511736237962 -3.3827643905032274 1.5895844742045717e-15 4.693846836708597e-17 0.0 0.0 -5.963540027744094e-16 -4.520130260079521 -22.74125492329144 50.68364324560661 -109.41245210647838 -5.191939868011951e-15 3.675251383792135e-15 0.0 0.0 0.0 0.0 0.0 -5.963540027744094e-16 11.0430108984894 -1.818868933555085 2.8391020190295477 0.0 0.0 -5.963540027744094e-16 16.563981417833915 15.687652524528835 -79.54505125619859 56.98850871789371 1.1659953012005805e-14 8.14641377499367e-15 1.5448672043175555e-31 6.3611093629270335e-15 -2.782985346280577e-15 0.0 0.0 3.975693351829396e-16 -1.0914668012099311 -16.380449116236957 -2.2102342759254845 0.8732017854865848 27.791469936978146 -2.9135399368712425 0.0 0.0 0.0
